<?xml version="1.0" standalone="no"?>
<!DOCTYPE svg PUBLIC "-//W3C//DTD SVG 20010904//EN"
 "http://www.w3.org/TR/2001/REC-SVG-20010904/DTD/svg10.dtd">
<svg version="1.0" xmlns="http://www.w3.org/2000/svg"
 width="280.000000pt" height="280.000000pt" viewBox="0 0 280.000000 280.000000"
 preserveAspectRatio="xMidYMid meet">
<metadata>
Created by potrace 1.14, written by Peter Selinger 2001-2017
</metadata>
<g transform="translate(0.000000,280.000000) scale(0.100000,-0.100000)"
fill="#000000" stroke="none">
<path d="M948 1849 l-448 -449 445 -445 c245 -245 449 -445 455 -445 6 0 210
200 455 445 l445 445 -449 450 c-247 248 -451 450 -453 449 -2 0 -204 -203
-450 -450z m865 -39 l410 -410 -306 -306 -306 -307 -136 134 c-74 74 -135 136
-135 139 0 3 33 5 73 6 129 1 234 69 294 192 24 49 28 69 28 142 0 136 -15
160 -281 427 l-224 225 82 84 c46 46 85 84 87 84 2 0 189 -185 414 -410z
m-486 68 c73 -73 133 -135 133 -138 0 -3 -33 -5 -74 -6 -59 -1 -85 -6 -129
-28 -71 -34 -129 -93 -164 -164 -24 -49 -28 -69 -28 -142 0 -136 15 -159 282
-428 l224 -226 -86 -84 -86 -85 -411 411 -411 412 304 305 c167 167 306 305
308 305 3 0 64 -60 138 -132z m163 -210 c90 -29 159 -104 184 -200 54 -212
-153 -406 -361 -337 -193 63 -260 309 -125 456 80 87 192 117 302 81z"/>
</g>
</svg>
